<?xml version="1.0" encoding="utf-8"?>
<!-- Generator: Adobe Illustrator 16.0.0, SVG Export Plug-In . SVG Version: 6.00 Build 0)  -->
<!DOCTYPE svg PUBLIC "-//W3C//DTD SVG 1.1//EN" "http://www.w3.org/Graphics/SVG/1.1/DTD/svg11.dtd">
<svg version="1.1" id="Capa_1" xmlns="http://www.w3.org/2000/svg" xmlns:xlink="http://www.w3.org/1999/xlink" x="0px" y="0px"
	 width="200px" height="200px" viewBox="0 0 200 200" enable-background="new 0 0 200 200" xml:space="preserve">
<ellipse id="oval2" fill="#F3F2F1" cx="99.909" cy="100.061" rx="98.909" ry="99.816"/>
<path fill="#5F5956" stroke="#5F5956" stroke-miterlimit="10" d="M67.423,113.607l10.923-11.887l12.491-0.596l13.002,9.51
	l17.686-11.883l5.724,5.944l9.364-2.975l4.803,5.021l5.305,7.53l8.363,28.359l2.903-4.841l5.34-8.415l3.888-14.239l1.822-8.35
	c0,0,5.238-15.102,5.427-21.45c0.272-9.135-10.662-18.96-10.662-18.96s10.668-4.49,4.041-18.52c-7.152-15.143-23-5.672-23-5.672
	s2.296-13.291-14.985-19.426c-5.657-2.008-22.881,7.267-22.881,7.267s-9.498-17.844-21.175-14.913
	c-11.658,2.927-11.613,9.943-11.613,9.943s-7.614-6.267-17.238-1.353C45.86,29.365,49.54,39.57,49.317,42.675
	c-3.887-2.572-20.589-5.563-17.217,5.328c1.462,4.724-10.175,10.108-7.057,16.116c2.695,5.192,5.007,10.552,5.007,10.552
	s-3.809,7.828-4.719,10.855c-1.762,5.859,5.471,21.26,5.471,21.26l4.371,19.305l10.383,16.069l5.307-18.301l-1.759,6.637
	l4.794-18.077L67.423,113.607z"/>
<path fill="#A52921" stroke="#000000" stroke-miterlimit="10" d="M118.421,15.112"/>
<path fill="#DC9A47" d="M187.326,110.916"/>
<g>
	<defs>
		<circle id="SVGID_1_" cx="99.489" cy="100.062" r="99.815"/>
	</defs>
	<clipPath id="SVGID_2_">
		<use xlink:href="#SVGID_1_"  overflow="visible"/>
	</clipPath>
	<g id="group" clip-path="url(#SVGID_2_)">
		<g id="page1">
			<g id="layer_1">
				<g id="layer_1_1_">
					<path id="bezier2" fill="#E7BFAB" d="M74.84,166.11c7.83,2.93,9.365,18.144,3.427,33.987
						c-5.933,15.842-17.096,26.312-24.919,23.382c-7.829-2.93-9.365-18.15-3.426-33.986C55.854,173.651,67.018,163.179,74.84,166.11
						z"/>
					<path id="bezier" fill="#030104" d="M60.166,222.219v12.105h80.212v-12.105H60.166z"/>
					<path id="bezier3" fill="#191617" fill-opacity="0.3" d="M48.874,203.715c-1.19-0.785-1.232-3.908-0.163-7.207
						c-0.121,0.27-0.234,0.545-0.34,0.828c-1.374,3.597-1.437,7.206-0.141,8.063c1.302,0.856,3.454-1.367,4.828-4.962
						c0.105-0.291,0.204-0.574,0.297-0.857C51.988,202.682,50.063,204.501,48.874,203.715L48.874,203.715z"/>
					<path id="bezier4" fill="#E7BFAB" d="M121.307,157.616c-7.83,2.93-9.366,18.143-3.427,33.986
						c5.933,15.842,17.098,26.313,24.919,23.382c7.83-2.93,9.366-18.15,3.426-33.986
						C140.293,165.154,129.129,154.685,121.307,157.616z"/>
					<path id="bezier5" fill="#191617" fill-opacity="0.3" d="M138.113,209.965c-2.314,0-4.214-3.553-4.503-8.161
						c-0.029,0.396-0.043,0.798-0.043,1.21c0,5.183,2.032,9.379,4.539,9.379c2.505,0,4.545-4.196,4.545-9.379
						c0-0.412-0.022-0.813-0.05-1.21C142.317,206.404,140.413,209.965,138.113,209.965L138.113,209.965z"/>
					<path id="bezier6" fill="#3D9C81" d="M147.946,176.085l-13.848-19.658l-11.156,5.124l-0.991-3.234H77.417l-0.764,2.803
						l-10.208-4.692l-13.847,19.658l17.69,8.128l-10.88,39.522h82.563l-12.049-39.368L147.946,176.085z"/>
					<path id="bezier7" fill="#FFFFFF" d="M100.267,179.114c7.108,0,12.87-5.754,12.87-12.855c0-7.101-5.762-12.857-12.87-12.857
						c-7.099,0-12.862,5.757-12.862,12.857C87.405,173.36,93.168,179.114,100.267,179.114z"/>
					<path id="bezier8" fill="#CFA28E" d="M100.247,176.8c5.84,0,10.569-4.418,10.569-9.861c0-5.444-4.729-9.854-10.569-9.854
						s-10.569,4.409-10.569,9.854C89.678,172.382,94.406,176.8,100.247,176.8z"/>
					<path id="bezier9" fill="#E7BFAB" d="M32.542,119.366c5.642,0,10.215-4.573,10.215-10.209c0-5.641-4.573-10.214-10.215-10.214
						c-5.642,0-10.216,4.573-10.216,10.214C22.327,114.793,26.9,119.366,32.542,119.366z"/>
					<path id="bezier10" fill="#E7BFAB" d="M165.729,119.366c5.643,0,10.215-4.573,10.215-10.209
						c0-5.641-4.572-10.214-10.215-10.214s-10.215,4.573-10.215,10.214C155.514,114.793,160.086,119.366,165.729,119.366z"/>
					<path id="bezier11" fill="#E7BFAB" d="M99.893,167.017c37.405,0,67.726-23.708,67.726-52.944
						c0-29.238-30.723-65.452-68.128-65.452s-67.323,36.214-67.323,65.452C32.167,143.309,62.487,167.017,99.893,167.017z"/>
					<path id="bezier12" fill="#191617" fill-opacity="0.38" d="M68.49,116.181c0,6.605-5.252-8.487-11.73-8.487
						s-11.73,15.093-11.73,8.487c0-6.59,5.253-11.942,11.73-11.942S68.49,109.591,68.49,116.181L68.49,116.181z"/>
					<path id="bezier13" fill="#191617" fill-opacity="0.38" d="M154.77,116.331c0,6.605-5.253-8.487-11.729-8.487
						c-6.478,0-11.725,15.093-11.725,8.487c0-6.59,5.247-11.942,11.725-11.942C149.517,104.389,154.77,109.741,154.77,116.331
						L154.77,116.331z"/>
					<path id="bezier14" fill="#191617" fill-opacity="0.3" d="M141.906,95.837c8.39,0,15.257,5.771,15.844,13.09
						c0.028-0.333,0.049-0.673,0.049-1.013c0-7.794-7.113-14.109-15.893-14.109c-8.771,0-15.892,6.314-15.892,14.109
						c0,0.34,0.021,0.68,0.048,1.013C126.65,101.613,133.52,95.837,141.906,95.837L141.906,95.837z"/>
					<path id="bezier15" fill="#191617" fill-opacity="0.3" d="M56.377,95.687c8.396,0,15.263,5.77,15.85,13.09
						c0.021-0.334,0.043-0.674,0.043-1.014c0-7.794-7.115-14.109-15.893-14.109c-8.771,0-15.885,6.314-15.885,14.109
						c0,0.34,0.014,0.68,0.042,1.014C41.122,101.463,47.989,95.687,56.377,95.687L56.377,95.687z"/>
					<path id="bezier16_1_" display="none" fill="#DC9A47" d="M167.551,71.507c0.065-0.705,0.103-1.417,0.103-2.129
						c0.015-9.131-5.318-17.544-14.27-24.238c-1.08-0.81,3.685-10.234,2.503-10.989c-1.005-0.638-7.948,7.374-9.021,6.77
						c-0.518-0.289-1.047-0.577-1.578-0.852c-1.966-1.036,0.288-12.265-1.878-13.165c-1.889-0.784-8.175,8.755-10.206,8.081
						c-9.819-3.232-21.151-5.09-33.228-5.109c-36.713-0.057-66.621,16.878-67.771,38.067l135.352,0.209L167.551,71.507
						L167.551,71.507L167.551,71.507z"/>
					<path id="bezier17_2_" display="none" fill="#DC9A47" d="M168.49,45.019L33.129,43.902h-0.085l-0.519,62.874
						c0,0,44.386-20.362,59.174-27.157c9.265-4.254,37.045-16.996,37.045-16.996l39.228,45.271l0.475-57.736L168.49,45.019
						L168.49,45.019z"/>
					<path id="bezier18" fill="#2C2622" d="M99.511,225.248v9.834h0.756v-9.834H99.511z"/>
					<path id="bezier19" fill="#191617" fill-opacity="0.3" d="M100.267,121.632c1.833,0,3.362,1.303,3.709,3.029
						c0.05-0.247,0.079-0.495,0.079-0.757c0-2.089-1.692-3.781-3.789-3.781c-2.087,0-3.78,1.692-3.78,3.781
						c0,0.262,0.029,0.51,0.079,0.757C96.913,122.935,98.442,121.632,100.267,121.632L100.267,121.632z"/>
					<path id="bezier23" fill="#DFA33B" fill-opacity="0.5" d="M141.51,141.298c0.213,0,0.383-0.17,0.383-0.375
						c0-0.213-0.17-0.383-0.383-0.383c-0.204,0-0.374,0.17-0.374,0.383C141.136,141.128,141.306,141.298,141.51,141.298z"/>
					<path id="bezier27" fill="#DFA33B" fill-opacity="0.5" d="M57.518,141.298c0.205,0,0.375-0.17,0.375-0.375
						c0-0.213-0.17-0.383-0.375-0.383c-0.213,0-0.383,0.17-0.383,0.383C57.134,141.128,57.305,141.298,57.518,141.298z"/>
					<path id="bezier30" fill="#2C2622" d="M52.215,238.105c1.882,0,3.404-1.183,3.404-2.648c0-1.457-1.522-2.647-3.404-2.647
						c-1.876,0-3.405,1.19-3.405,2.647C48.811,236.923,50.339,238.105,52.215,238.105z"/>
					<path id="bezier31" fill="#2C2622" d="M57.518,238.105c1.876,0,3.405-1.183,3.405-2.648c0-1.457-1.529-2.647-3.405-2.647
						c-1.884,0-3.405,1.19-3.405,2.647C54.112,236.923,55.634,238.105,57.518,238.105z"/>
					<path id="bezier32" fill="#2C2622" d="M62.813,238.105c1.883,0,3.405-1.183,3.405-2.648c0-1.457-1.521-2.647-3.405-2.647
						c-1.883,0-3.405,1.19-3.405,2.647C59.408,236.923,60.93,238.105,62.813,238.105z"/>
					<path id="bezier33" fill="#2C2622" d="M68.865,238.105c1.883,0,3.405-1.183,3.405-2.648c0-1.457-1.522-2.647-3.405-2.647
						c-1.883,0-3.405,1.19-3.405,2.647C65.46,236.923,66.982,238.105,68.865,238.105z"/>
					<path id="bezier34" fill="#2C2622" d="M74.161,238.105c1.883,0,3.405-1.183,3.405-2.648c0-1.457-1.521-2.647-3.405-2.647
						c-1.876,0-3.406,1.19-3.406,2.647C70.755,236.923,72.284,238.105,74.161,238.105z"/>
					<path id="bezier35" fill="#2C2622" d="M79.463,238.105c1.875,0,3.405-1.183,3.405-2.648c0-1.457-1.529-2.647-3.405-2.647
						c-1.883,0-3.405,1.19-3.405,2.647C76.058,236.923,77.58,238.105,79.463,238.105z"/>
					<path id="bezier36" fill="#2C2622" d="M85.515,238.105c1.883,0,3.405-1.183,3.405-2.648c0-1.457-1.522-2.647-3.405-2.647
						s-3.404,1.19-3.404,2.647C82.111,236.923,83.632,238.105,85.515,238.105z"/>
					<path id="bezier37" fill="#2C2622" d="M90.811,238.105c1.883,0,3.405-1.183,3.405-2.648c0-1.457-1.522-2.647-3.405-2.647
						c-1.884,0-3.405,1.19-3.405,2.647C87.405,236.923,88.927,238.105,90.811,238.105z"/>
					<path id="bezier38" fill="#2C2622" d="M96.105,238.105c1.884,0,3.405-1.183,3.405-2.648c0-1.457-1.521-2.647-3.405-2.647
						c-1.875,0-3.405,1.19-3.405,2.647C92.701,236.923,94.23,238.105,96.105,238.105z"/>
					<path id="bezier39" fill="#2C2622" d="M103.672,238.105c1.884,0,3.406-1.183,3.406-2.648c0-1.457-1.522-2.647-3.406-2.647
						c-1.875,0-3.405,1.19-3.405,2.647C100.267,236.923,101.797,238.105,103.672,238.105z"/>
					<path id="bezier40" fill="#2C2622" d="M108.976,238.105c1.876,0,3.405-1.183,3.405-2.648c0-1.457-1.529-2.647-3.405-2.647
						c-1.884,0-3.406,1.19-3.406,2.647C105.569,236.923,107.092,238.105,108.976,238.105z"/>
					<path id="bezier41" fill="#2C2622" d="M114.271,238.105c1.882,0,3.404-1.183,3.404-2.648c0-1.457-1.522-2.647-3.404-2.647
						c-1.884,0-3.406,1.19-3.406,2.647C110.865,236.923,112.388,238.105,114.271,238.105z"/>
					<path id="bezier42" fill="#2C2622" d="M120.322,238.105c1.884,0,3.406-1.183,3.406-2.648c0-1.457-1.522-2.647-3.406-2.647
						c-1.883,0-3.404,1.19-3.404,2.647C116.918,236.923,118.439,238.105,120.322,238.105z"/>
					<path id="bezier43" fill="#2C2622" d="M125.618,238.105c1.883,0,3.405-1.183,3.405-2.648c0-1.457-1.522-2.647-3.405-2.647
						c-1.876,0-3.405,1.19-3.405,2.647C122.213,236.923,123.742,238.105,125.618,238.105z"/>
					<path id="bezier44" fill="#2C2622" d="M130.921,238.105c1.876,0,3.404-1.183,3.404-2.648c0-1.457-1.528-2.647-3.404-2.647
						c-1.884,0-3.406,1.19-3.406,2.647C127.515,236.923,129.037,238.105,130.921,238.105z"/>
					<path id="bezier45" fill="#2C2622" d="M136.974,238.105c1.874,0,3.404-1.183,3.404-2.648c0-1.457-1.53-2.647-3.404-2.647
						c-1.883,0-3.406,1.19-3.406,2.647C133.567,236.923,135.091,238.105,136.974,238.105z"/>
					<path id="bezier46" fill="#2C2622" d="M142.268,238.105c1.884,0,3.406-1.183,3.406-2.648c0-1.457-1.522-2.647-3.406-2.647
						s-3.404,1.19-3.404,2.647C138.863,236.923,140.384,238.105,142.268,238.105z"/>
					<path id="bezier47" fill="#2C2622" d="M147.563,238.105c1.883,0,3.405-1.183,3.405-2.648c0-1.457-1.522-2.647-3.405-2.647
						c-1.876,0-3.405,1.19-3.405,2.647C144.158,236.923,145.688,238.105,147.563,238.105z"/>
					<path id="bezier48" fill="#191617" fill-opacity="0.05" d="M100.267,127.684c17.139,0,31.029-1.521,31.029-3.404
						c0-1.876-13.89-3.398-31.029-3.398c-17.13,0-31.02,1.522-31.02,3.398C69.247,126.163,83.137,127.684,100.267,127.684z"/>
					<path id="bezier49" fill="#FFFFFF" d="M74.542,225.248c-14.214,0-25.731,4.735-25.731,10.585h51.457
						C100.267,229.983,88.75,225.248,74.542,225.248L74.542,225.248z"/>
					<path id="bezier50" fill="#FFFFFF" d="M126,225.248c-14.208,0-25.733,4.735-25.733,10.585h51.459
						C151.727,229.983,140.208,225.248,126,225.248L126,225.248z"/>
					<path id="bezier51" fill="#E3B29A" d="M48.819,190.289c-1.86-1.681-4.044-2.289-4.885-1.358
						c-0.846,0.931-0.016,3.047,1.844,4.72c1.86,1.681,4.051,2.287,4.893,1.366C51.511,194.086,50.679,191.97,48.819,190.289z"/>
				</g>
				<path id="bezier52" fill="none" stroke="#A18476" stroke-width="3" d="M122.213,141.694c0,4.786-9.472,8.678-21.188,8.678
					c-11.715,0-21.188-3.899-21.188-8.678c0-4.821,9.472-8.716,21.188-8.716C112.741,132.979,122.213,136.873,122.213,141.694
					L122.213,141.694z"/>
				<path id="bezier53" fill="#E7BFAB" d="M77.565,130.709v10.589h46.163v-10.589H77.565z"/>
			</g>
		</g>
	</g>
</g>
<path id="bezier16" fill="#605A57" d="M167.112,75.357c0.064-0.706,0.103-1.417,0.103-2.129c0.015-9.131-5.317-17.544-14.27-24.239
	c-1.082-0.81-4.265-2.86-5.445-3.616c-1.394,0.646,0,0-1.073-0.604c-0.517-0.289-1.048-0.577-1.579-0.852
	c-1.966-1.037-4.349-2.674-6.513-3.573c-1.888-0.784-3.539-0.836-5.57-1.51c-9.821-3.232-21.153-5.091-33.229-5.109
	c-36.713-0.057-66.62,16.878-67.771,38.067l135.352,0.209L167.112,75.357L167.112,75.357L167.112,75.357z"/>
<path fill="#605A57" d="M31.753,80.949c0,0-2.438-14.51,0.492-18.024c21.546-25.849,137.968-29.525,142.058,3.391
	c1.982,15.954-7.079,14.634-7.079,14.634H31.753"/>
<polygon fill="#605A57" points="58.194,54.886 65.198,34.116 85.802,41.065 79.243,64.844 "/>
<path fill="#605A57" d="M91.569,28.376c0,0,1.131-16.096,19.554-13.209c10.007,1.568,12.682,18.771,12.682,18.771l-19.555,13.21
	L91.569,28.376z"/>
<path fill="#605A57" d="M53.549,0.246"/>
<path fill="#605A57" d="M80.13,67.218l-14.447-0.595c0,0-6.168-17.407-2.5-21.328c3.947-4.221,23.085,1.153,23.085,1.153
	L80.13,67.218z"/>
<path fill="#605A57" d="M59.515,33.708L57.151,55.5l-21.617-2.346c-1.429-2.103-10.153-7.521,2.763-19.498
	C48.012,24.648,59.515,33.708,59.515,33.708z"/>
<path fill="#605A57" d="M123.223,48.879l-15.846-11.767c0,0,2.272-19.128,17.227-19.073c12.9,0.047,15.846,17.573,15.846,17.573
	L123.223,48.879z"/>
<path fill="#605A57" d="M133.531,53.207l-7.108-22.368c0,0,6.063-12.085,18.375-6.377c19.401,8.996,8.693,20.122,8.693,20.122
	L133.531,53.207z"/>
<path fill="#605A57" d="M135.892,57.289l-2.198-21.808c0,0,9.74-12.392,21.635-2.18c4.157,3.57,2.196,21.808,2.196,21.808
	L135.892,57.289z"/>
<path fill="#605A57" d="M25.963,85.551c0,0-5.942-4.362-0.429-16.072c2.557-5.431,23.62-4.31,23.62-4.31l-6.479,17.194
	L25.963,85.551z"/>
<path fill="#605A57" d="M26.735,72.179c0,0-9.351-12.734,2.376-21.806c7.556-5.845,20.03,0.65,20.03,0.65l-0.79,23.511
	L26.735,72.179z"/>
<path id="bezier20" fill="#CFA28E" fill-opacity="0.5" d="M150.957,124.815c1.465,0,2.647-1.19,2.647-2.648
	c0-1.464-1.183-2.646-2.647-2.646c-1.467,0-2.648,2.641-2.648,4.104C148.309,125.083,149.49,124.815,150.957,124.815z"/>
<path id="bezier21" fill="#CFA28E" fill-opacity="0.5" d="M156.66,130.043c0.631,0,1.139-0.51,1.139-1.132
	c0-0.631-0.508-1.132-1.139-1.132c-0.624,0-1.133,0.501-1.133,1.132C155.527,129.533,156.036,130.043,156.66,130.043z"/>
<path id="bezier22" fill="#CFA28E" fill-opacity="0.5" d="M155.302,124.956c0.834,0,1.514-0.681,1.514-1.515
	c0-0.835-0.68-1.509-1.514-1.509c-0.836,0-1.516,0.674-1.516,1.509C153.786,124.275,154.466,124.956,155.302,124.956z"/>
<path id="bezier17" fill="#5F5956" d="M167.215,71.744H31.848h-0.085v42.348c0,0,2.819-8.032,4.409-10.353
	c1.375-2.007,6.969-6.789,6.969-6.789l0.636-18.126c0,0,44.729,2.369,47.744,1.416c9.23-2.917,63.78-0.708,63.78-0.708V96.54
	c0,0,1.713,1.565,7.365,7.2c4.466,4.452,4.549,10.353,4.549,10.353V75.206V71.744L167.215,71.744z"/>
</svg>
